REM DIRINDEX 1\2,1\3,1\4,1\5,1\6
REM DIRNAME folder01,folder02,folder03,folder04,folder05,folder06
TITLE ""
FILE "Disc4Track27.mp3" MP3
  TRACK 01 AUDIO
    TITLE "3:cjc030_06804"
    INDEX 01 00:00:00
  TRACK 02 AUDIO
    TITLE "0:"
    INDEX 01 00:00:64
  TRACK 03 AUDIO
    TITLE "4:cjc030_06805"
    INDEX 01 00:00:72
  TRACK 04 AUDIO
    TITLE "0:"
    INDEX 01 00:03:57
  TRACK 05 AUDIO
    TITLE "5:cjc030_06806"
    INDEX 01 00:03:68
  TRACK 06 AUDIO
    TITLE "0:"
    INDEX 01 00:04:58
  TRACK 07 AUDIO
    TITLE "6:cjc030_06807"
    INDEX 01 00:04:72
  TRACK 08 AUDIO
    TITLE "0:"
    INDEX 01 00:07:05
  TRACK 09 AUDIO
    TITLE "3:cjc030_06808"
    INDEX 01 00:07:52
  TRACK 10 AUDIO
    TITLE "0:"
    INDEX 01 00:08:52
  TRACK 11 AUDIO
    TITLE "4:cjc030_06809"
    INDEX 01 00:08:62
  TRACK 12 AUDIO
    TITLE "0:"
    INDEX 01 00:09:57
  TRACK 13 AUDIO
    TITLE "5:cjc030_06810"
    INDEX 01 00:09:67
  TRACK 14 AUDIO
    TITLE "0:"
    INDEX 01 00:10:68
  TRACK 15 AUDIO
    TITLE "6:cjc030_06811"
    INDEX 01 00:11:05
  TRACK 16 AUDIO
    TITLE "0:"
    INDEX 01 00:15:30
  TRACK 17 AUDIO
    TITLE "3:cjc030_06812"
    INDEX 01 00:16:04
  TRACK 18 AUDIO
    TITLE "0:"
    INDEX 01 00:17:10
  TRACK 19 AUDIO
    TITLE "4:cjc030_06813"
    INDEX 01 00:17:18
  TRACK 20 AUDIO
    TITLE "0:"
    INDEX 01 00:18:37
  TRACK 21 AUDIO
    TITLE "5:cjc030_06814"
    INDEX 01 00:18:44
  TRACK 22 AUDIO
    TITLE "0:"
    INDEX 01 00:19:50
  TRACK 23 AUDIO
    TITLE "6:cjc030_06815"
    INDEX 01 00:19:63
  TRACK 24 AUDIO
    TITLE "0:"
    INDEX 01 00:23:40
  TRACK 25 AUDIO
    TITLE "3:cjc030_06816"
    INDEX 01 00:24:12
  TRACK 26 AUDIO
    TITLE "0:"
    INDEX 01 00:25:25
  TRACK 27 AUDIO
    TITLE "4:cjc030_06817"
    INDEX 01 00:25:35
  TRACK 28 AUDIO
    TITLE "0:"
    INDEX 01 00:26:38
  TRACK 29 AUDIO
    TITLE "5:cjc030_06818"
    INDEX 01 00:26:48
  TRACK 30 AUDIO
    TITLE "0:"
    INDEX 01 00:27:61
  TRACK 31 AUDIO
    TITLE "3:cjc030_06819"
    INDEX 01 00:28:41
  TRACK 32 AUDIO
    TITLE "0:"
    INDEX 01 00:29:52
  TRACK 33 AUDIO
    TITLE "4:cjc030_06820"
    INDEX 01 00:29:62
  TRACK 34 AUDIO
    TITLE "0:"
    INDEX 01 00:30:61
  TRACK 35 AUDIO
    TITLE "5:cjc030_06821"
    INDEX 01 00:30:69
  TRACK 36 AUDIO
    TITLE "0:"
    INDEX 01 00:32:05
  TRACK 37 AUDIO
    TITLE "6:cjc030_06822"
    INDEX 01 00:32:17
  TRACK 38 AUDIO
    TITLE "0:"
    INDEX 01 00:34:43
  TRACK 39 AUDIO
    TITLE "3:cjc030_06823"
    INDEX 01 00:35:17
  TRACK 40 AUDIO
    TITLE "0:"
    INDEX 01 00:36:21
  TRACK 41 AUDIO
    TITLE "4:cjc030_06824"
    INDEX 01 00:36:27
  TRACK 42 AUDIO
    TITLE "0:"
    INDEX 01 00:37:54
  TRACK 43 AUDIO
    TITLE "5:cjc030_06825"
    INDEX 01 00:37:65
  TRACK 44 AUDIO
    TITLE "0:"
    INDEX 01 00:38:67
  TRACK 45 AUDIO
    TITLE "6:cjc030_06826"
    INDEX 01 00:39:03
  TRACK 46 AUDIO
    TITLE "0:"
    INDEX 01 00:43:11
  TRACK 47 AUDIO
    TITLE "3:cjc030_06827"
    INDEX 01 00:43:60
  TRACK 48 AUDIO
    TITLE "0:"
    INDEX 01 00:44:67
  TRACK 49 AUDIO
    TITLE "4:cjc030_06828"
    INDEX 01 00:45:02
  TRACK 50 AUDIO
    TITLE "0:"
    INDEX 01 00:47:01
  TRACK 51 AUDIO
    TITLE "5:cjc030_06829"
    INDEX 01 00:47:11
  TRACK 52 AUDIO
    TITLE "0:"
    INDEX 01 00:48:20
  TRACK 53 AUDIO
    TITLE "6:cjc030_06830"
    INDEX 01 00:48:32
  TRACK 54 AUDIO
    TITLE "0:"
    INDEX 01 00:54:34
  TRACK 55 AUDIO
    TITLE "6:cjc030_06831"
    INDEX 01 00:54:68
  TRACK 56 AUDIO
    TITLE "0:"
    INDEX 01 00:56:39
  TRACK 57 AUDIO
    TITLE "3:cjc030_06832"
    INDEX 01 00:57:13
  TRACK 58 AUDIO
    TITLE "0:"
    INDEX 01 00:58:20
  TRACK 59 AUDIO
    TITLE "4:cjc030_06833"
    INDEX 01 00:58:30
  TRACK 60 AUDIO
    TITLE "0:"
    INDEX 01 01:00:13
  TRACK 61 AUDIO
    TITLE "5:cjc030_06834"
    INDEX 01 01:00:23
  TRACK 62 AUDIO
    TITLE "0:"
    INDEX 01 01:01:33
  TRACK 63 AUDIO
    TITLE "6:cjc030_06835"
    INDEX 01 01:01:44
  TRACK 64 AUDIO
    TITLE "0:"
    INDEX 01 01:04:70
  TRACK 65 AUDIO
    TITLE "3:cjc030_06836"
    INDEX 01 01:05:44
  TRACK 66 AUDIO
    TITLE "0:"
    INDEX 01 01:07:57
  TRACK 67 AUDIO
    TITLE "4:cjc030_06837"
    INDEX 01 01:07:64
  TRACK 68 AUDIO
    TITLE "0:"
    INDEX 01 01:09:52
  TRACK 69 AUDIO
    TITLE "5:cjc030_06838"
    INDEX 01 01:09:61
  TRACK 70 AUDIO
    TITLE "0:"
    INDEX 01 01:11:72
  TRACK 71 AUDIO
    TITLE "6:cjc030_06839"
    INDEX 01 01:12:15
  TRACK 72 AUDIO
    TITLE "0:"
    INDEX 01 01:14:19
  TRACK 73 AUDIO
    TITLE "3:cjc030_06840"
    INDEX 01 01:14:68
  TRACK 74 AUDIO
    TITLE "0:"
    INDEX 01 01:16:01
  TRACK 75 AUDIO
    TITLE "4:cjc030_06841"
    INDEX 01 01:16:12
  TRACK 76 AUDIO
    TITLE "0:"
    INDEX 01 01:17:73
  TRACK 77 AUDIO
    TITLE "5:cjc030_06842"
    INDEX 01 01:18:06
  TRACK 78 AUDIO
    TITLE "0:"
    INDEX 01 01:19:17
  TRACK 79 AUDIO
    TITLE "6:cjc030_06843"
    INDEX 01 01:19:28
  TRACK 80 AUDIO
    TITLE "0:"
    INDEX 01 01:23:71
